<svg width="108" height="32" viewBox="0 0 108 32" fill="none" xmlns="http://www.w3.org/2000/svg">
<g clip-path="url(#clip0_2761_180)">
<path d="M16.9529 15.0183C16.9245 11.5274 19.5335 9.82908 19.6528 9.75001C18.1752 7.36389 15.885 7.03787 15.0802 7.01187C13.1567 6.78766 11.2909 8.28671 10.311 8.28671C9.31161 8.28671 7.80271 7.03353 6.17648 7.07036C4.08378 7.1061 2.12604 8.4481 1.05231 10.532C-1.1636 14.7811 0.489041 21.0254 2.61205 24.46C3.67404 26.1431 4.91499 28.0202 6.53927 27.9541C8.12835 27.8826 8.72194 26.8331 10.6396 26.8331C12.5396 26.8331 13.097 27.9541 14.7536 27.9119C16.459 27.8826 17.5328 26.2222 18.5576 24.5249C19.7849 22.5981 20.2777 20.6983 20.2973 20.6008C20.2582 20.5856 16.9861 19.2014 16.9529 15.0183Z" fill="white"/>
<path d="M13.9102 5.0648C14.7705 3.89781 15.3591 2.31014 15.1957 0.698975C13.9506 0.758766 12.3934 1.63321 11.4968 2.77459C10.7034 3.78036 9.99473 5.42889 10.1778 6.97919C11.5765 7.09237 13.0126 6.21365 13.9102 5.0648Z" fill="white"/>
<path d="M40.0526 27.3532H37.8118L36.5844 23.1833H32.318L31.1488 27.3532H28.9673L33.1952 13.1571H35.8059L40.0526 27.3532ZM36.2144 21.4339L35.1044 17.727C34.987 17.3483 34.766 16.4565 34.4423 15.0527H34.4029C34.2726 15.6565 34.0644 16.5482 33.7793 17.727L32.688 21.4339H36.2144Z" fill="white"/>
<path d="M50.904 22.109C50.904 23.8499 50.4669 25.226 49.5917 26.2362C48.8083 27.1355 47.8344 27.5846 46.6731 27.5846C45.419 27.5846 44.5172 27.1013 43.9696 26.1327V31.5037H41.866V20.4812C41.866 19.3878 41.8394 18.2667 41.7881 17.1167H43.6381L43.7555 18.7392H43.795C44.4965 17.5168 45.5611 16.9055 46.9898 16.9055C48.1067 16.9055 49.0391 17.3823 49.7851 18.3371C50.53 19.2939 50.904 20.5505 50.904 22.109ZM48.7609 22.1922C48.7609 21.1959 48.5537 20.3745 48.1373 19.727C47.6825 19.0539 47.0717 18.7168 46.3061 18.7168C45.7871 18.7168 45.3154 18.9046 44.8941 19.2747C44.4718 19.6481 44.1956 20.1356 44.0663 20.7394C44.0012 21.021 43.9686 21.2503 43.9686 21.4317V23.1395C43.9686 23.883 44.1798 24.5113 44.6021 25.0255C45.0244 25.5375 45.573 25.7946 46.2478 25.7946C47.0401 25.7946 47.6568 25.4628 48.0979 24.8047C48.5399 24.1444 48.7609 23.2739 48.7609 22.1922Z" fill="white"/>
<path d="M61.7939 22.109C61.7939 23.8499 61.3568 25.226 60.4816 26.2362C59.6972 27.1355 58.7243 27.5846 57.562 27.5846C56.308 27.5846 55.4061 27.1013 54.8585 26.1327V31.5037H52.755V20.4812C52.755 19.3878 52.7283 18.2667 52.677 17.1167H54.527L54.6444 18.7392H54.6839C55.3844 17.5168 56.4491 16.9055 57.8787 16.9055C58.9947 16.9055 59.9271 17.3823 60.675 18.3371C61.4189 19.2939 61.7939 20.5505 61.7939 22.109ZM59.6498 22.1922C59.6498 21.1959 59.4416 20.3745 59.0253 19.727C58.5704 19.0539 57.9616 18.7168 57.196 18.7168C56.677 18.7168 56.2053 18.9046 55.7821 19.2747C55.3598 19.6481 55.0845 20.1356 54.9552 20.7394C54.8911 21.021 54.8566 21.2503 54.8566 21.4317V23.1395C54.8566 23.883 55.0687 24.5113 55.489 25.0255C55.9113 25.5364 56.4599 25.7946 57.1368 25.7946C57.9301 25.7946 58.5467 25.4628 58.9868 24.8047C59.4288 24.1444 59.6498 23.2739 59.6498 22.1922Z" fill="white"/>
<path d="M73.9694 23.371C73.9694 24.5796 73.5787 25.5621 72.8022 26.3205C71.9478 27.1483 70.7549 27.5633 69.2255 27.5633C67.8126 27.5633 66.6799 27.2688 65.8254 26.6789L66.3119 24.7834C67.2344 25.3743 68.2477 25.6687 69.3508 25.6687C70.1441 25.6687 70.7608 25.4746 71.2008 25.0895C71.6419 24.7034 71.8649 24.1871 71.8649 23.5427C71.8649 22.9656 71.6804 22.4824 71.3183 22.0888C70.9542 21.6962 70.3523 21.3303 69.5067 20.9943C67.2078 20.0673 66.0573 18.7115 66.0573 16.9279C66.0573 15.7631 66.4638 14.8094 67.2749 14.0638C68.0859 13.3192 69.1614 12.9469 70.4993 12.9469C71.6942 12.9469 72.6897 13.172 73.4801 13.6211L72.9522 15.4751C72.2082 15.0398 71.3686 14.8222 70.4293 14.8222C69.6873 14.8222 69.1051 15.0196 68.6888 15.4121C68.3385 15.7631 68.1609 16.1908 68.1609 16.6986C68.1609 17.2586 68.3632 17.7237 68.7657 18.0885C69.115 18.4246 69.7524 18.7905 70.674 19.183C71.8047 19.6758 72.6355 20.2497 73.1673 20.909C73.703 21.5682 73.9694 22.3907 73.9694 23.371Z" fill="white"/>
<path d="M80.9423 18.8235H78.6236V23.7935C78.6236 25.0575 79.0321 25.688 79.851 25.688C80.2269 25.688 80.5387 25.6538 80.7854 25.5824L80.8436 27.3094C80.4292 27.4769 79.8836 27.5611 79.2077 27.5611C78.3769 27.5611 77.7277 27.287 77.259 26.7387C76.7923 26.1904 76.5575 25.2719 76.5575 23.9791V18.8193H75.1761V17.1125H76.5575V15.2383L78.6236 14.5641V17.1125H80.9423V18.8235Z" fill="white"/>
<path d="M91.3832 22.1506C91.3832 23.724 90.9669 25.0159 90.1361 26.0261C89.2668 27.0661 88.1104 27.5845 86.6689 27.5845C85.2777 27.5845 84.1716 27.0864 83.3468 26.0911C82.5219 25.0937 82.1095 23.8371 82.1095 22.3213C82.1095 20.7351 82.5357 19.4358 83.3853 18.4256C84.2368 17.4143 85.3833 16.9087 86.8248 16.9087C88.214 16.9087 89.33 17.4079 90.1746 18.4042C90.9817 19.3707 91.3832 20.6188 91.3832 22.1506ZM89.2027 22.2029C89.2027 21.2652 89.0152 20.4609 88.6393 19.7878C88.1983 18.975 87.5668 18.5685 86.7488 18.5685C85.9062 18.5685 85.2599 18.975 84.8199 19.7878C84.443 20.4609 84.2555 21.2791 84.2555 22.2456C84.2555 23.1843 84.443 23.9907 84.8199 24.6617C85.2747 25.4745 85.9092 25.881 86.7311 25.881C87.5352 25.881 88.1657 25.466 88.6215 24.6414C89.0083 23.9523 89.2027 23.1427 89.2027 22.2029Z" fill="white"/>
<path d="M98.2238 19.1169C98.0156 19.0753 97.7926 19.0539 97.5608 19.0539C96.8208 19.0539 96.2485 19.3547 95.8459 19.9606C95.4966 20.494 95.321 21.1682 95.321 21.9821V27.3531H93.2174V20.3404C93.2174 19.1617 93.1967 18.0864 93.1562 17.1178H94.9885L95.0655 19.0763H95.1237C95.3467 18.4032 95.696 17.8602 96.1755 17.4538C96.6441 17.0879 97.1503 16.9055 97.6959 16.9055C97.8903 16.9055 98.0659 16.9205 98.2218 16.9471L98.2238 19.1169Z" fill="white"/>
<path d="M107.632 21.7506C107.632 22.1581 107.607 22.5016 107.555 22.7822H101.244C101.268 23.7934 101.574 24.5679 102.16 25.1012C102.691 25.577 103.379 25.8159 104.224 25.8159C105.158 25.8159 106.011 25.6559 106.777 25.3327L107.107 26.9104C106.211 27.3328 105.153 27.543 103.933 27.543C102.465 27.543 101.312 27.0758 100.473 26.1434C99.6367 25.21 99.2174 23.9556 99.2174 22.3843C99.2174 20.8418 99.6071 19.5564 100.388 18.5312C101.205 17.4368 102.309 16.8895 103.698 16.8895C105.062 16.8895 106.096 17.4368 106.797 18.5312C107.353 19.3985 107.632 20.4737 107.632 21.7506ZM105.626 21.1607C105.641 20.4855 105.503 19.9041 105.217 19.4123C104.853 18.7787 104.293 18.463 103.542 18.463C102.854 18.463 102.294 18.7712 101.868 19.3899C101.517 19.8817 101.309 20.4727 101.245 21.1586L105.626 21.1607Z" fill="white"/>
<path d="M35.4766 7.79237H34.3756L33.7733 5.77851H31.6786L31.1039 7.79237H30.0325L32.1084 0.935181H33.3898L35.4766 7.79237ZM33.5919 4.93355L33.0468 3.14298C32.9896 2.95953 32.8842 2.53285 32.7215 1.85143H32.7018C32.6348 2.14601 32.5392 2.57374 32.3952 3.14298L31.86 4.93355H33.5919Z" fill="white"/>
<path d="M40.6674 2.84839L38.9069 7.79236H37.9024L36.1991 2.84839H37.309L38.1035 5.46295C38.2376 5.90011 38.3519 6.31735 38.4377 6.71362H38.4663C38.5431 6.35823 38.6575 5.94099 38.8004 5.46295L39.585 2.84839H40.6674Z" fill="white"/>
<path d="M44.4151 7.79237L44.3383 7.22312H44.3097C43.9942 7.68124 43.5349 7.90454 42.9513 7.90454C42.1194 7.90454 41.526 7.28392 41.526 6.44944C41.526 5.22917 42.5206 4.59807 44.2426 4.59807V4.50687C44.2426 3.85585 43.9174 3.52981 43.2766 3.52981C42.8173 3.52981 42.4151 3.65247 42.0622 3.89673L41.8523 3.17443C42.283 2.88928 42.8183 2.7467 43.4501 2.7467C44.6645 2.7467 45.2776 3.42813 45.2776 4.79202V6.61298C45.2776 7.11199 45.2974 7.49883 45.3447 7.79341L44.4151 7.79237ZM44.2712 5.32981C43.1229 5.32981 42.5492 5.62545 42.5492 6.32679C42.5492 6.84571 42.8459 7.09941 43.2569 7.09941C43.7833 7.09941 44.2712 6.67274 44.2712 6.09301V5.32981Z" fill="white"/>
<path d="M47.5783 2.03384C47.2343 2.03384 46.9662 1.74869 46.9662 1.37233C46.9662 0.995979 47.2432 0.721313 47.598 0.721313C47.9519 0.721313 48.2388 0.995979 48.2289 1.37233C48.2289 1.76965 47.9618 2.03384 47.5783 2.03384ZM48.1146 7.79237H47.0815V2.8484H48.1146V7.79237Z" fill="white"/>
<path d="M50.983 7.79241H49.95V0.579834H50.983V7.79241Z" fill="white"/>
<path d="M55.3734 7.79244L55.2965 7.22319H55.2679C54.9525 7.68131 54.4932 7.90461 53.9096 7.90461C53.0777 7.90461 52.4843 7.28399 52.4843 6.44951C52.4843 5.22925 53.4788 4.59814 55.2009 4.59814V4.50694C55.2009 3.85592 54.8756 3.52989 54.2349 3.52989C53.7755 3.52989 53.3734 3.65254 53.0205 3.89681L52.8095 3.17345C53.2403 2.8883 53.7755 2.74573 54.4074 2.74573C55.6218 2.74573 56.2349 3.42715 56.2349 4.79104V6.61201C56.2349 7.11102 56.2556 7.49785 56.301 7.79244H55.3734ZM55.2295 5.32989C54.0811 5.32989 53.5074 5.62552 53.5074 6.32686C53.5074 6.84579 53.8041 7.09948 54.2152 7.09948C54.7416 7.09948 55.2295 6.67281 55.2295 6.09308V5.32989Z" fill="white"/>
<path d="M60.4202 7.90459C59.7608 7.90459 59.2738 7.60895 58.9584 7.02922H58.9377L58.8785 7.79241H57.9983C58.0269 7.39614 58.0367 6.94745 58.0367 6.45997V0.579834H59.0708V3.5718H59.0905C59.397 3.02247 59.8928 2.7478 60.573 2.7478C61.6928 2.7478 62.4774 3.76574 62.4774 5.25019C62.4774 6.78496 61.606 7.90459 60.4202 7.90459ZM60.2102 3.61059C59.6159 3.61059 59.0717 4.15992 59.0717 4.92311V5.78799C59.0717 6.46941 59.5607 7.02922 60.1925 7.02922C60.9663 7.02922 61.4266 6.35828 61.4266 5.29003C61.4256 4.29305 60.9466 3.61059 60.2102 3.61059Z" fill="white"/>
<path d="M65.0374 7.79241H64.0054V0.579834H65.0374V7.79241Z" fill="white"/>
<path d="M70.6609 5.58467H67.5598C67.5805 6.52084 68.1621 7.0492 69.0236 7.0492C69.4829 7.0492 69.9038 6.96743 70.2764 6.81542L70.4371 7.57861C69.9975 7.78199 69.481 7.88368 68.8787 7.88368C67.4238 7.88368 66.5632 6.90663 66.5632 5.39177C66.5632 3.87587 67.4445 2.73633 68.7624 2.73633C69.9482 2.73633 70.6954 3.6725 70.6954 5.08671C70.6993 5.2796 70.6905 5.45258 70.6609 5.58467ZM69.7136 4.80156C69.7136 4.03837 69.3499 3.49952 68.6894 3.49952C68.096 3.49952 67.6288 4.04885 67.5598 4.80156H69.7136Z" fill="white"/>
<path d="M76.9222 7.90454C75.5638 7.90454 74.6836 6.8258 74.6836 5.36126C74.6836 3.83488 75.5826 2.7467 77 2.7467C78.3377 2.7467 79.2386 3.77408 79.2386 5.28054C79.2386 6.8258 78.3101 7.90454 76.9222 7.90454ZM76.9616 3.54973C76.2154 3.54973 75.7373 4.29196 75.7373 5.32981C75.7373 6.34775 76.2253 7.08998 76.9517 7.08998C77.6782 7.08998 78.1652 6.29638 78.1652 5.30885C78.1662 4.30244 77.6881 3.54973 76.9616 3.54973Z" fill="white"/>
<path d="M84.7922 7.79244H83.7602V4.95353C83.7602 4.07922 83.4448 3.64101 82.8228 3.64101C82.2106 3.64101 81.7888 4.20082 81.7888 4.85184V7.79244H80.7567V4.26163C80.7567 3.82447 80.7459 3.35586 80.7183 2.84742H81.6271L81.6754 3.61061H81.704C81.98 3.08224 82.5458 2.74573 83.1766 2.74573C84.1515 2.74573 84.7922 3.53932 84.7922 4.83088V7.79244Z" fill="white"/>
<path d="M91.5513 3.67249H90.4148V6.07319C90.4148 6.68438 90.6149 6.98944 91.0161 6.98944C91.1984 6.98944 91.3522 6.96848 91.4754 6.93807L91.504 7.77255C91.3029 7.85432 91.0338 7.89521 90.7016 7.89521C89.8874 7.89521 89.4014 7.41717 89.4014 6.16545V3.67249H88.7233V2.8485H89.4014V1.94273L90.4148 1.6167V2.84745H91.5513V3.67249Z" fill="white"/>
<path d="M97.022 7.79241H95.988V4.97448C95.988 4.08968 95.6726 3.64204 95.0506 3.64204C94.5153 3.64204 94.0185 4.02887 94.0185 4.81198V7.79241H92.9845V0.579834H94.0185V3.54978H94.0382C94.3635 3.01093 94.8327 2.7457 95.435 2.7457C96.4197 2.7457 97.022 3.55922 97.022 4.85182V7.79241Z" fill="white"/>
<path d="M102.301 5.58467H99.2004C99.2201 6.52084 99.8017 7.0492 100.663 7.0492C101.124 7.0492 101.544 6.96743 101.916 6.81542L102.078 7.57861C101.638 7.78199 101.121 7.88368 100.518 7.88368C99.0634 7.88368 98.2029 6.90663 98.2029 5.39177C98.2029 3.87587 99.0841 2.73633 100.402 2.73633C101.588 2.73633 102.335 3.6725 102.335 5.08671C102.339 5.2796 102.329 5.45258 102.301 5.58467ZM101.353 4.80156C101.353 4.03837 100.991 3.49952 100.33 3.49952C99.7357 3.49952 99.2684 4.04885 99.2004 4.80156H101.353Z" fill="white"/>
</g>
<defs>
<clipPath id="clip0_2761_180">
<rect width="108" height="32" fill="white"/>
</clipPath>
</defs>
</svg>
