<svg width="107" height="28" viewBox="0 0 107 28" fill="none" xmlns="http://www.w3.org/2000/svg">
<path d="M34.3316 4.32643C34.3316 5.1485 34.1024 5.8069 33.6509 6.29793C33.1317 6.88002 32.4556 7.17292 31.627 7.17292C30.8351 7.17292 30.1589 6.8751 29.6043 6.28808C29.0485 5.69245 28.7711 4.96145 28.7711 4.08646C28.7711 3.21147 29.0485 2.48047 29.6043 1.88976C30.1589 1.29782 30.8351 1 31.627 1C32.0212 1 32.3971 1.08738 32.7558 1.24982C33.1134 1.4135 33.4045 1.63501 33.6153 1.90822L33.1363 2.42755C32.7684 1.96113 32.2676 1.731 31.627 1.731C31.0494 1.731 30.5486 1.9476 30.1234 2.38448C29.7028 2.82259 29.492 3.38991 29.492 4.08646C29.492 4.783 29.7028 5.35525 30.1234 5.79336C30.5486 6.22532 31.0494 6.44684 31.627 6.44684C32.2401 6.44684 32.7558 6.22532 33.1627 5.78844C33.4308 5.49924 33.5832 5.10051 33.6234 4.59102H31.627V3.87971H34.2903C34.3224 4.03354 34.3316 4.18245 34.3316 4.32643Z" fill="white" stroke="white" stroke-width="0.625"/>
<path d="M38.5564 1.8601H36.0547V3.73068H38.31V4.442H36.0547V6.31258H38.5564V7.03743H35.3464V1.13525H38.5564V1.8601Z" fill="white" stroke="white" stroke-width="0.625"/>
<path d="M41.539 7.03743H40.8308V1.8601H39.2963V1.13525H43.0747V1.8601H41.539V7.03743Z" fill="white" stroke="white" stroke-width="0.625"/>
<path d="M45.8091 7.03743V1.13525H46.5162V7.03743H45.8091Z" fill="white" stroke="white" stroke-width="0.625"/>
<path d="M49.6501 7.03743H48.9476V1.8601H47.4073V1.13525H51.1904V1.8601H49.6501V7.03743Z" fill="white" stroke="white" stroke-width="0.625"/>
<path d="M58.3439 6.27824C57.8018 6.8751 57.1302 7.17292 56.3292 7.17292C55.5235 7.17292 54.8519 6.8751 54.3099 6.27824C53.7689 5.6826 53.4996 4.9516 53.4996 4.08646C53.4996 3.22131 53.7689 2.49031 54.3099 1.89468C54.8519 1.29782 55.5235 1 56.3292 1C57.1256 1 57.7972 1.29782 58.3393 1.8996C58.8848 2.50016 59.1541 3.22624 59.1541 4.08646C59.1541 4.9516 58.8848 5.6826 58.3439 6.27824ZM54.8336 5.78352C55.2416 6.22532 55.7378 6.44684 56.3292 6.44684C56.9159 6.44684 57.4167 6.22532 57.8201 5.78352C58.227 5.34172 58.4332 4.77439 58.4332 4.08646C58.4332 3.39853 58.227 2.8312 57.8201 2.3894C57.4167 1.9476 56.9159 1.72608 56.3292 1.72608C55.7378 1.72608 55.2416 1.9476 54.8336 2.3894C54.4268 2.8312 54.2205 3.39853 54.2205 4.08646C54.2205 4.77439 54.4268 5.34172 54.8336 5.78352Z" fill="white" stroke="white" stroke-width="0.625"/>
<path d="M60.1473 7.03743V1.13525H61.0069L63.6794 5.72556H63.7103L63.6794 4.59091V1.13525H64.3865V7.03743H63.6484L60.8498 2.22068H60.8189L60.8498 3.36026V7.03743H60.1473Z" fill="white" stroke="white" stroke-width="0.625"/>
<path d="M53.3256 15.6569C51.1722 15.6569 49.4131 17.4167 49.4131 19.8447C49.4131 22.2531 51.1722 24.0314 53.3256 24.0314C55.4835 24.0314 57.2427 22.2531 57.2427 19.8447C57.2427 17.4167 55.4835 15.6569 53.3256 15.6569ZM53.3256 22.3823C52.144 22.3823 51.1275 21.3351 51.1275 19.8447C51.1275 18.3347 52.144 17.3059 53.3256 17.3059C54.5071 17.3059 55.5282 18.3347 55.5282 19.8447C55.5282 21.3351 54.5071 22.3823 53.3256 22.3823ZM44.7889 15.6569C42.6309 15.6569 40.8764 17.4167 40.8764 19.8447C40.8764 22.2531 42.6309 24.0314 44.7889 24.0314C46.9457 24.0314 48.7014 22.2531 48.7014 19.8447C48.7014 17.4167 46.9457 15.6569 44.7889 15.6569ZM44.7889 22.3823C43.6062 22.3823 42.5863 21.3351 42.5863 19.8447C42.5863 18.3347 43.6062 17.3059 44.7889 17.3059C45.9704 17.3059 46.987 18.3347 46.987 19.8447C46.987 21.3351 45.9704 22.3823 44.7889 22.3823ZM34.6306 16.9404V18.7199H38.5878C38.472 19.7143 38.1626 20.4453 37.6882 20.9548C37.1106 21.5701 36.211 22.2531 34.6306 22.2531C32.1953 22.2531 30.2883 20.1426 30.2883 17.5274C30.2883 14.9123 32.1953 12.8018 34.6306 12.8018C35.9474 12.8018 36.9054 13.3543 37.6125 14.0706L38.7803 12.8165C37.7913 11.8025 36.4757 11.0235 34.6306 11.0235C31.2911 11.0235 28.4845 13.9413 28.4845 17.5274C28.4845 21.1135 31.2911 24.0314 34.6306 24.0314C36.4356 24.0314 37.7913 23.3964 38.8571 22.2051C39.9493 21.0323 40.2896 19.3832 40.2896 18.0517C40.2896 17.6382 40.2575 17.2579 40.2002 16.9404H34.6306ZM76.1692 18.32C75.8472 17.3835 74.8536 15.6569 72.8297 15.6569C70.8242 15.6569 69.1544 17.3539 69.1544 19.8447C69.1544 22.1903 70.807 24.0314 73.0222 24.0314C74.8134 24.0314 75.8472 22.8586 76.2723 22.1756L74.9429 21.2243C74.4994 21.9208 73.8955 22.3823 73.0222 22.3823C72.1547 22.3823 71.5324 21.9553 71.1336 21.1135L76.3491 18.7962L76.1692 18.32ZM70.8517 19.7143C70.807 18.0997 72.0194 17.2727 72.8881 17.2727C73.5689 17.2727 74.1465 17.6382 74.339 18.1612L70.8517 19.7143ZM66.6125 23.7767H68.327V11.4702L66.6125 11.4702V23.7767ZM63.8048 16.5897H63.7475C63.3624 16.0999 62.6278 15.6569 61.6973 15.6569C59.7444 15.6569 57.9589 17.4979 57.9589 19.8583C57.9589 22.2051 59.7444 24.0314 61.6973 24.0314C62.6278 24.0314 63.3624 23.5847 63.7475 23.0801H63.8048V23.6807C63.8048 25.2817 63.0083 26.142 61.7236 26.142C60.6762 26.142 60.0264 25.3297 59.7582 24.6467L58.2672 25.315C58.697 26.425 59.835 27.791 61.7236 27.791C63.7337 27.791 65.4298 26.521 65.4298 23.4308V15.9116H63.8048V16.5897ZM61.8439 22.3823C60.6624 22.3823 59.6734 21.3203 59.6734 19.8583C59.6734 18.3827 60.6624 17.3059 61.8439 17.3059C63.0083 17.3059 63.9263 18.3827 63.9263 19.8583C63.9263 21.3203 63.0083 22.3823 61.8439 22.3823ZM84.1959 11.4702H80.0954V23.7767H81.8053V19.1137H84.1959C86.0948 19.1137 87.9571 17.6382 87.9571 15.2914C87.9571 12.9457 86.0903 11.4702 84.1959 11.4702ZM84.2406 17.4019H81.8053V13.182H84.2406C85.5173 13.182 86.2461 14.3204 86.2461 15.2914C86.2461 16.2439 85.5173 17.4019 84.2406 17.4019ZM94.8103 15.6335C93.5749 15.6335 92.2902 16.2193 91.7619 17.5176L93.2792 18.2006C93.6059 17.5176 94.2064 17.2961 94.8413 17.2961C95.7283 17.2961 96.6279 17.8683 96.6417 18.8787V19.0079C96.3322 18.8159 95.6698 18.5316 94.855 18.5316C93.2208 18.5316 91.5556 19.4977 91.5556 21.3006C91.5556 22.9497 92.8942 24.0117 94.3989 24.0117C95.5495 24.0117 96.1844 23.4542 96.5832 22.8057H96.6417V23.757L98.2931 23.757V19.0362C98.2931 16.8543 96.7757 15.6335 94.8103 15.6335ZM94.604 22.3774C94.0448 22.3774 93.2655 22.0796 93.2655 21.3351C93.2655 20.3825 94.2373 20.017 95.0785 20.017C95.8314 20.017 96.1844 20.1955 96.6417 20.4305C96.5076 21.5701 95.5942 22.3774 94.604 22.3774ZM104.31 15.903L102.344 21.2378H102.286L100.254 15.903H98.41L101.463 23.3582L99.721 27.5067H101.508L106.212 15.903H104.31ZM88.8969 23.7767H90.6113V11.4702H88.8969V23.7767Z" fill="white"/>
<path d="M0.425173 1.66314C0.155859 1.96588 0 2.43722 0 3.04762L0 24.8202C0 25.4306 0.155859 25.9019 0.425173 26.2047L0.491642 26.2711L11.8533 14.0754V13.7875L0.491642 1.59176L0.425173 1.66314Z" fill="url(#paint0_linear_2761_214)"/>
<path d="M15.6363 18.1426L11.8533 14.0753V13.7873L15.6409 9.72004L15.7257 9.77296L20.2112 12.5136C21.4913 13.2914 21.4913 14.5712 20.2112 15.3539L15.7257 18.0897L15.6363 18.1426Z" fill="url(#paint1_linear_2761_214)"/>
<path d="M15.7265 18.0897L11.8541 13.9313L0.426025 26.2045C0.851198 26.6845 1.54454 26.7423 2.333 26.2624L15.7265 18.0897Z" fill="url(#paint2_linear_2761_214)"/>
<path d="M15.7265 9.77329L2.333 1.60058C1.54454 1.12555 0.851198 1.18339 0.426025 1.66334L11.8541 13.9316L15.7265 9.77329Z" fill="url(#paint3_linear_2761_214)"/>
<defs>
<linearGradient id="paint0_linear_2761_214" x1="7.32719" y1="25.0469" x2="-3.34892" y2="15.7607" gradientUnits="userSpaceOnUse">
<stop stop-color="#00A0FF"/>
<stop offset="0.0066" stop-color="#00A1FF"/>
<stop offset="0.2601" stop-color="#00BEFF"/>
<stop offset="0.5122" stop-color="#00D2FF"/>
<stop offset="0.7604" stop-color="#00DFFF"/>
<stop offset="1" stop-color="#00E3FF"/>
</linearGradient>
<linearGradient id="paint1_linear_2761_214" x1="21.8781" y1="13.9299" x2="-0.305984" y2="13.9299" gradientUnits="userSpaceOnUse">
<stop stop-color="#FFE000"/>
<stop offset="0.4087" stop-color="#FFBD00"/>
<stop offset="0.7754" stop-color="#FFA500"/>
<stop offset="1" stop-color="#FF9C00"/>
</linearGradient>
<linearGradient id="paint2_linear_2761_214" x1="13.6208" y1="15.4956" x2="-4.41347" y2="-0.190867" gradientUnits="userSpaceOnUse">
<stop stop-color="#FF3A44"/>
<stop offset="1" stop-color="#C31162"/>
</linearGradient>
<linearGradient id="paint3_linear_2761_214" x1="-2.45066" y1="21.9335" x2="5.60065" y2="14.9304" gradientUnits="userSpaceOnUse">
<stop stop-color="#32A071"/>
<stop offset="0.0685" stop-color="#2DA771"/>
<stop offset="0.4762" stop-color="#15CF74"/>
<stop offset="0.8009" stop-color="#06E775"/>
<stop offset="1" stop-color="#00F076"/>
</linearGradient>
</defs>
</svg>
